<?xml version="1.0" standalone="no"?><!DOCTYPE svg PUBLIC "-//W3C//DTD SVG 1.1//EN" "http://www.w3.org/Graphics/SVG/1.1/DTD/svg11.dtd"><svg t="1766123367141" class="icon" viewBox="0 0 1024 1024" version="1.1" xmlns="http://www.w3.org/2000/svg" p-id="7319" xmlns:xlink="http://www.w3.org/1999/xlink" width="200" height="200"><path d="M840.533333 896a12.8 12.8 0 0 0 12.8-12.8V396.8a12.8 12.8 0 0 0-12.8-12.8H725.333333a85.333333 85.333333 0 0 1-85.333333-85.333333V140.8a12.8 12.8 0 0 0-12.8-12.8H183.466667a12.8 12.8 0 0 0-12.8 12.8v315.733333a12.8 12.8 0 0 1-12.8 12.8H98.133333a12.8 12.8 0 0 1-12.8-12.8V85.333333a42.666667 42.666667 0 0 1 42.666667-42.666666h596.8c0.298667 0 0.533333 0.234667 0.533333 0.512 0 0.256 0.170667 0.469333 0.426667 0.512a42.666667 42.666667 0 0 1 22.997333 13.76l179.541334 207.872A42.666667 42.666667 0 0 1 938.666667 293.205333V938.666667a42.666667 42.666667 0 0 1-42.666667 42.666666H128a42.666667 42.666667 0 0 1-42.666667-42.666666v-115.2a12.8 12.8 0 0 1 12.8-12.8h59.733334a12.8 12.8 0 0 1 12.8 12.8v59.733333a12.8 12.8 0 0 0 12.8 12.8h657.066666z m-24.170666-597.333333a12.8 12.8 0 0 0 9.685333-21.162667l-78.229333-90.581333A12.8 12.8 0 0 0 725.333333 195.285333V285.866667a12.8 12.8 0 0 0 12.8 12.8h78.229334z" fill="#477ae0" p-id="7320"></path><path d="M278.442667 715.136c4.266667-11.093333-4.928-21.888-16.810667-21.888h-10.368c-8.853333 0-16.128 6.272-20.352 14.037333-6.634667 12.202667-17.962667 20.437333-35.669333 20.437334-12.970667 0-23.552-4.778667-30.378667-12.629334-9.216-10.24-11.946667-21.845333-11.946667-68.608s2.730667-58.368 11.946667-68.608c6.826667-7.850667 17.408-12.629333 30.378667-12.629333 17.706667 0 29.013333 8.234667 35.669333 20.416 4.224 7.765333 11.52 14.058667 20.352 14.058667h10.368c11.882667 0 21.077333-10.794667 16.853333-21.888-13.952-36.394667-45.226667-54.912-83.584-54.912-26.624 0-48.469333 9.557333-65.536 26.624-24.576 24.576-23.893333 54.954667-23.893333 96.938666 0 41.984-0.682667 72.362667 23.893333 96.938667 17.066667 17.066667 38.912 26.624 65.536 26.624 38.058667 0 69.546667-18.517333 83.541334-54.912zM482.346667 696.32c0-21.504-5.802667-39.253333-18.773334-51.541333-10.24-9.557333-24.234667-15.701333-46.421333-18.773334l-28.672-4.096c-9.898667-1.365333-17.749333-5.12-22.528-9.557333a23.466667 23.466667 0 0 1-7.168-17.408c0-16.725333 12.288-30.72 37.546667-30.72 10.965333 0 23.04 0.96 34.496 6.250667 9.429333 4.352 21.226667 4.650667 28.608-2.645334l2.794666-2.773333c7.68-7.573333 7.701333-20.202667-1.322666-26.048-17.408-11.306667-37.610667-16.085333-63.210667-16.085333-52.565333 0-84.650667 30.378667-84.650667 73.728 0 20.48 5.802667 36.181333 17.408 47.786666 10.922667 10.581333 26.282667 17.066667 47.104 20.138667l29.354667 4.096c11.264 1.706667 16.725333 4.096 21.504 8.533333 5.12 4.778667 7.509333 11.946667 7.509333 20.48 0 19.456-15.018667 30.037333-43.008 30.037334-15.68 0-30.528-2.474667-43.306666-9.173334-9.386667-4.906667-21.482667-5.226667-28.992 2.261334l-3.648 3.669333c-7.466667 7.466667-7.616 19.754667 0.981333 25.856 20.693333 14.634667 44.586667 19.712 74.282667 19.712 50.858667 0 90.112-26.624 90.112-73.728zM682.026667 696.32c0-21.504-5.824-39.253333-18.773334-51.541333-10.24-9.557333-24.256-15.701333-46.442666-18.773334l-28.672-4.096c-9.898667-1.365333-17.749333-5.12-22.528-9.557333a23.466667 23.466667 0 0 1-7.168-17.408c0-16.725333 12.288-30.72 37.546666-30.72 10.965333 0 23.04 0.96 34.496 6.250667 9.429333 4.352 21.226667 4.650667 28.608-2.645334l2.816-2.773333c7.658667-7.573333 7.68-20.202667-1.344-26.048-17.408-11.306667-37.610667-16.085333-63.210666-16.085333-52.565333 0-84.650667 30.378667-84.650667 73.728 0 20.48 5.802667 36.181333 17.408 47.786666 10.922667 10.581333 26.282667 17.066667 47.104 20.138667l29.354667 4.096c11.264 1.706667 16.725333 4.096 21.504 8.533333 5.12 4.778667 7.509333 11.946667 7.509333 20.48 0 19.456-15.018667 30.037333-43.008 30.037334-15.68 0-30.506667-2.474667-43.285333-9.173334-9.386667-4.906667-21.504-5.226667-29.013334 2.261334l-3.626666 3.669333c-7.466667 7.466667-7.637333 19.754667 0.981333 25.856 20.672 14.634667 44.586667 19.712 74.261333 19.712 50.858667 0 90.112-26.624 90.112-73.728z" fill="#477ae0" p-id="7321"></path><path d="M256 226.133333a12.8 12.8 0 0 1 12.8-12.8h230.4a12.8 12.8 0 0 1 12.8 12.8v59.733334a12.8 12.8 0 0 1-12.8 12.8H268.8a12.8 12.8 0 0 1-12.8-12.8v-59.733334z" fill="#477ae0" p-id="7322"></path></svg>